<svg xmlns="http://www.w3.org/2000/svg" height="512pt" version="1.1" viewBox="0 0 512 512" width="512pt">
<g id="surface1">
<path d="M 256 0 C 115.300781 0 0 115.300781 0 256 C 0 396.699219 115.300781 512 256 512 C 396.699219 512 512 396.699219 512 256 C 512 115.300781 396.699219 0 256 0 Z M 256 0 " style=" stroke:none;fill-rule:nonzero;fill:rgb(100%,89.411765%,43.921569%);fill-opacity:1;" />
<path d="M 512 256 C 512 396.699219 396.699219 512 256 512 L 256 0 C 396.699219 0 512 115.300781 512 256 Z M 512 256 " style=" stroke:none;fill-rule:nonzero;fill:rgb(100%,83.137255%,0%);fill-opacity:1;" />
<path d="M 256 61 C 148.597656 61 61 148.597656 61 256 C 61 363.402344 148.597656 451 256 451 C 363.402344 451 451 363.402344 451 256 C 451 148.597656 363.402344 61 256 61 Z M 256 61 " style=" stroke:none;fill-rule:nonzero;fill:rgb(99.215686%,74.901961%,0%);fill-opacity:1;" />
<path d="M 451 256 C 451 363.402344 363.402344 451 256 451 L 256 61 C 363.402344 61 451 148.597656 451 256 Z M 451 256 " style=" stroke:none;fill-rule:nonzero;fill:rgb(100%,62.352941%,0%);fill-opacity:1;" />
<path d="M 331 301 C 331 334 304 361 271 361 L 271 376 C 271 384.402344 264.402344 391 256 391 C 247.597656 391 241 384.402344 241 376 L 241 361 L 196 361 C 187.597656 361 181 354.402344 181 346 C 181 337.597656 187.597656 331 196 331 L 271 331 C 287.5 331 301 317.5 301 301 C 301 284.5 287.5 271 271 271 L 241 271 C 208 271 181 244 181 211 C 181 178 208 151 241 151 L 241 136 C 241 127.597656 247.597656 121 256 121 C 264.402344 121 271 127.597656 271 136 L 271 151 L 316 151 C 324.402344 151 331 157.597656 331 166 C 331 174.402344 324.402344 181 316 181 L 241 181 C 224.5 181 211 194.5 211 211 C 211 227.5 224.5 241 241 241 L 271 241 C 304 241 331 268 331 301 Z M 331 301 " style=" stroke:none;fill-rule:nonzero;fill:rgb(100%,89.411765%,43.921569%);fill-opacity:1;" />
<path d="M 150.972656 256 C 150.972656 264.285156 144.253906 271 135.972656 271 C 127.6875 271 120.972656 264.285156 120.972656 256 C 120.972656 247.714844 127.6875 241 135.972656 241 C 144.253906 241 150.972656 247.714844 150.972656 256 Z M 150.972656 256 " style=" stroke:none;fill-rule:nonzero;fill:rgb(100%,89.411765%,43.921569%);fill-opacity:1;" />
<path d="M 390.972656 256 C 390.972656 264.285156 384.253906 271 375.972656 271 C 367.6875 271 360.972656 264.285156 360.972656 256 C 360.972656 247.714844 367.6875 241 375.972656 241 C 384.253906 241 390.972656 247.714844 390.972656 256 Z M 390.972656 256 " style=" stroke:none;fill-rule:nonzero;fill:rgb(100%,83.137255%,0%);fill-opacity:1;" />
<path d="M 331 301 C 331 334 304 361 271 361 L 271 376 C 271 384.402344 264.402344 391 256 391 L 256 331 L 271 331 C 287.5 331 301 317.5 301 301 C 301 284.5 287.5 271 271 271 L 256 271 L 256 241 L 271 241 C 304 241 331 268 331 301 Z M 331 301 " style=" stroke:none;fill-rule:nonzero;fill:rgb(100%,83.137255%,0%);fill-opacity:1;" />
<path d="M 316 181 L 256 181 L 256 121 C 264.402344 121 271 127.597656 271 136 L 271 151 L 316 151 C 324.402344 151 331 157.597656 331 166 C 331 174.402344 324.402344 181 316 181 Z M 316 181 " style=" stroke:none;fill-rule:nonzero;fill:rgb(100%,83.137255%,0%);fill-opacity:1;" />
</g>
</svg>